<mxfile host="app.diagrams.net" modified="2022-04-04T03:06:23.414Z" agent="5.0 (Windows NT 10.0; Win64; x64) AppleWebKit/537.36 (KHTML, like Gecko) Chrome/99.0.4844.84 Safari/537.36" etag="n-ztTIqz9iqjY88F3xjE" version="17.2.4" type="github">
  <diagram id="cx69EMmZrDqoVeWjHm4s" name="Page-1">
    <mxGraphModel dx="1038" dy="547" grid="1" gridSize="10" guides="1" tooltips="1" connect="1" arrows="1" fold="1" page="1" pageScale="1" pageWidth="827" pageHeight="1169" math="0" shadow="0">
      <root>
        <mxCell id="0" />
        <mxCell id="1" parent="0" />
        <mxCell id="3J0a7_Yi2Pi95GtLafXz-3" value="" style="edgeStyle=orthogonalEdgeStyle;rounded=0;orthogonalLoop=1;jettySize=auto;html=1;" edge="1" parent="1" source="3J0a7_Yi2Pi95GtLafXz-1" target="3J0a7_Yi2Pi95GtLafXz-2">
          <mxGeometry relative="1" as="geometry" />
        </mxCell>
        <mxCell id="3J0a7_Yi2Pi95GtLafXz-1" value="怎么使用的？" style="rounded=0;whiteSpace=wrap;html=1;fillColor=#dae8fc;strokeColor=#6c8ebf;" vertex="1" parent="1">
          <mxGeometry x="190" y="160" width="120" height="60" as="geometry" />
        </mxCell>
        <mxCell id="3J0a7_Yi2Pi95GtLafXz-5" value="" style="edgeStyle=orthogonalEdgeStyle;rounded=0;orthogonalLoop=1;jettySize=auto;html=1;" edge="1" parent="1" source="3J0a7_Yi2Pi95GtLafXz-2" target="3J0a7_Yi2Pi95GtLafXz-4">
          <mxGeometry relative="1" as="geometry" />
        </mxCell>
        <mxCell id="3J0a7_Yi2Pi95GtLafXz-2" value="我想说你怎么做的" style="whiteSpace=wrap;html=1;rounded=0;fillColor=#ffe6cc;strokeColor=#d79b00;" vertex="1" parent="1">
          <mxGeometry x="390" y="160" width="120" height="60" as="geometry" />
        </mxCell>
        <mxCell id="3J0a7_Yi2Pi95GtLafXz-4" value="不要这么做" style="ellipse;whiteSpace=wrap;html=1;rounded=0;fillColor=#e1d5e7;strokeColor=#9673a6;" vertex="1" parent="1">
          <mxGeometry x="590" y="160" width="120" height="60" as="geometry" />
        </mxCell>
      </root>
    </mxGraphModel>
  </diagram>
</mxfile>
